PathFileType	4	(X/Y/Z)	Patient5_TMGait_0pt45_1_left_12.trc.trc
DataRate	CameraRate	NumFrames	NumMarkers	Units	OrigDataRate	OrigDataStartFrame	OrigNumFrames
62.500000000000	62.500000000000	5	32	mm	62.500000000000	53	       141
Frame#	Time	R.ASIS			L.ASIS			Chest			R.Shoulder			Neck			L.Shoulder			L.Elbow			L.Wrist			R.Elbow			R.Wrist			L.Thigh.Superior			L.Thigh.Lateral			L.Thigh.Inferior			L.Patella			L.Shank.Superior			L.Shank.Lateral			L.Shank.Inferior			L.Heel			L.Midfoot.Lateral			L.Midfoot.Superior			L.Toe			R.Thigh.Superior			R.Thigh.Lateral			R.Thigh.Inferior			R.Patella			R.Shank.Superior			R.Shank.Lateral			R.Shank.Inferior			R.Heel			R.Midfoot.Lateral			R.Midfoot.Superior			R.Toe			
		X1	Y1	Z1	X2	Y2	Z2	X3	Y3	Z3	X4	Y4	Z4	X5	Y5	Z5	X6	Y6	Z6	X7	Y7	Z7	X8	Y8	Z8	X9	Y9	Z9	X10	Y10	Z10	X11	Y11	Z11	X12	Y12	Z12	X13	Y13	Z13	X14	Y14	Z14	X15	Y15	Z15	X16	Y16	Z16	X17	Y17	Z17	X18	Y18	Z18	X19	Y19	Z19	X20	Y20	Z20	X21	Y21	Z21	X22	Y22	Z22	X23	Y23	Z23	X24	Y24	Z24	X25	Y25	Z25	X26	Y26	Z26	X27	Y27	Z27	X28	Y28	Z28	X29	Y29	Z29	X30	Y30	Z30	X31	Y31	Z31	X32	Y32	Z32	

53	19.442000000000	1044.961440160801	1021.073327241417	526.954751448102	1096.736433394026	966.539411432897	295.740967250583	1160.821865376198	1447.658702504903	421.722213298808	1024.851404934160	1515.532374254130	557.252618346730	1051.273287295978	1574.822009417132	373.585491707010	1157.561954821111	1516.966360367400	218.717739180877	1143.558338516169	1196.764165445741	76.572971078963	1280.718151396998	947.449719300720	132.924287639565	899.382649594594	1201.217158355796	677.038988306387	1119.499278807586	1011.846133771773	661.676240233270	1111.133858361109	748.301386077018	302.524671913504	1043.345448473804	676.755012585369	256.858094938298	1107.819685916213	622.115892308931	332.585385224597	1108.370779167505	508.461908663701	345.751472375287	1061.685238566422	404.486180804440	363.948522334124	1008.043271495232	332.148788319293	279.018210917514	1027.614937553492	281.486142946439	371.634529018049	894.613657469918	49.905473144390	368.642844712051	984.954019068347	27.148662864304	310.195134565399	1080.498915125394	88.761247903560	358.386891443580	1188.710496074722	44.148948615865	363.628726449092	1082.752081750421	795.142233146418	588.439898357020	996.608122783019	724.619496843177	648.188256120406	1087.679923898353	664.460974020536	597.377155063748	1088.104929084433	567.165859939066	648.332881071053	1026.303758224056	463.707546197187	617.909801530408	925.041169056478	427.238833448718	688.287224714854	973.464918858326	333.751187669334	628.196104534011	807.935833162609	147.991757664112	591.421931571971	854.037320184784	100.961214530723	681.978782039453	976.233042876149	130.083559937698	690.621988990107	1057.824964613225	57.479143479513	716.147064380229	
54	19.458000000000	1042.917070961422	1022.670111157324	526.377012485517	1095.076957924596	966.502308790914	295.623928263612	1159.145642336137	1447.329378452873	420.763168242489	1022.886891044462	1515.500403108515	555.583287370182	1050.151566139730	1574.710609723639	372.072809682809	1157.278346350752	1516.583393721403	217.906760421600	1146.328657331546	1195.983558524162	76.357144197598	1284.874954807910	947.929890882074	134.709622618672	896.941390060028	1201.335308722506	675.300933733721	1116.345631873864	1011.161181176911	659.593082051994	1108.288660897710	747.686693553165	302.521532216810	1039.947230275089	676.638536643983	256.870835782324	1103.845041950355	621.529181065793	332.431006189126	1103.514475609828	507.727108336563	345.502401909763	1056.228087741181	404.066683962272	363.741882708203	1002.154333420340	331.974331906913	278.904761903832	1021.519393900843	281.285128141046	371.545985208875	887.372938499789	49.727616029458	368.806679984932	977.723585998988	27.149989597726	310.201790298038	1073.249980821165	88.685523651886	358.401858426887	1181.486374367493	44.127122842619	363.612419024059	1080.306977755963	796.922500290397	589.263192311142	995.160339847003	726.181040259597	648.799287221857	1087.357920378848	667.259353684766	599.036958350968	1089.934224032060	571.044537161701	650.984421582209	1033.618662136215	466.183908224932	620.155055049736	933.314821104537	425.270874765896	689.277040745907	987.499944477349	333.855024606744	630.794282598527	831.962381324091	139.231937034058	593.285027379081	880.061160726946	94.729069927020	684.241014012477	1000.363749081636	130.485239436327	694.029122414037	1085.740314356201	62.548117310942	720.204401486520	
55	19.474000000000	1040.972710109048	1024.092956137554	526.081651854223	1093.211295174879	966.240088607977	295.616770156417	1157.176585273076	1446.930058470356	419.952198057518	1020.605623924283	1515.491385795733	553.971759240443	1048.791152314814	1574.531384540802	370.609473267746	1156.753522242830	1516.002346956331	217.187266758553	1148.786373044639	1194.993778979866	76.350961543131	1288.513711045819	948.114309785554	136.688886897392	894.602919324838	1201.337074483381	673.723591844278	1113.401583045127	1010.482987522176	657.608348121311	1105.370210008424	747.071501644681	302.719519038345	1036.584208559656	676.459541424712	257.027860223330	1099.849233895075	620.965779783146	332.460543306803	1098.617981462409	506.960337303762	345.356506465312	1050.705292019047	403.632476701872	363.575493320283	996.207996982200	331.787641432270	278.851510081087	1015.411764180371	281.073631918438	371.513558937105	880.139053642096	49.604408488768	368.941822954985	970.492827249055	27.158645997066	310.218454541625	1066.002873622162	88.617952607585	358.423010657060	1174.266211505132	44.109256713156	363.600509798321	1078.377853015484	799.004868695997	590.474342773874	994.596605535982	727.634247388963	649.581085954598	1088.258791502198	670.364437999606	600.917840356116	1093.073100746400	575.022655923066	653.610984731454	1041.880792168789	468.991751732378	622.068928993736	942.720438004972	423.845988268281	690.111244310879	1001.941128249219	334.789058305301	632.764398458094	855.666480073552	132.897513407904	594.732901689901	905.902673626435	90.056980086535	685.245732479550	1024.119282082017	131.849282507574	695.678453395404	1112.887849656783	68.331068796724	721.365850443427	
56	19.490000000000	1039.153617012796	1025.332286893865	526.043360361766	1091.172409487958	965.781399262821	295.643165839025	1154.918924778793	1446.515798303519	419.295273905278	1017.997004905459	1515.555356767171	552.435333310103	1047.186525272285	1574.327078264709	369.214972598843	1155.979373121478	1515.284330935464	216.574824162186	1150.895676182108	1193.859724072693	76.568981074152	1291.623470524381	948.064830418198	138.843843427803	892.248505667762	1201.285669647755	672.250830777519	1110.627629994074	1009.959652606976	655.773070024874	1102.343743321698	746.453316555442	303.092244624300	1033.179474751872	676.251421505975	257.289591778444	1095.747858436073	620.397823990121	332.635786370332	1093.584252881071	506.180956802028	345.277400849996	1045.043734478728	403.209899662430	363.421335673790	990.120308616760	331.605480969746	278.842218697534	1009.245660807695	280.863313482707	371.519137158954	872.913153622776	49.570924961331	369.021949307316	963.256895510428	27.176496320960	310.245111028802	1058.756377288134	88.559394922108	358.448334119907	1167.044279091701	44.097636634879	363.589328585806	1077.242636068959	801.442028751536	591.934550330044	995.112923707940	729.003500896593	650.392801299494	1090.492320022958	673.770956890290	602.787052526827	1097.570820452295	579.074053939464	655.936250131828	1050.996139730933	472.060330970423	623.528324207540	953.087425606763	423.041531986024	690.685401878794	1016.521861841823	336.442400718887	634.040297885606	878.523175532574	128.751574257214	595.668091961237	930.919436420927	86.973785273056	685.196958589310	1047.005700178463	134.103451732133	695.929588720953	1138.751322520961	74.620580616906	720.427198191732	
57	19.506000000000	1037.481615411267	1026.379663145268	526.232512704072	1088.987836689144	965.184910355006	295.641393844747	1152.388707263020	1446.133820328878	418.790213494589	1015.071556337459	1515.722588179305	550.999887211292	1045.330750196491	1574.133299594800	367.918310888642	1154.941628705278	1514.493985357977	216.084674690033	1152.630179290280	1192.650135807130	77.023467477910	1294.194623062163	947.843577160123	141.160556629777	889.753180107065	1201.241815235540	670.839398227214	1107.971828398334	1009.731941734730	654.137359741306	1099.187586477934	745.825435785445	303.595757837118	1029.655198689487	676.044279228107	257.610125188321	1091.457777200231	619.791991098801	332.902461223376	1088.331896014293	505.408603447642	345.229925021656	1039.186905605430	402.824287786730	363.258147622051	983.827198586222	331.442757304221	278.862999173749	1002.978475995222	280.664726288004	371.544572444389	865.693420844099	49.636244661587	369.041196589936	956.010963222711	27.204558747688	310.282393099348	1051.506991646457	88.502383017451	358.482410000038	1159.813705762955	44.093809814638	363.576591773874	1077.069796283260	804.232761837456	593.457438317224	996.819088812274	730.313323752130	651.097103756060	1094.043558888701	677.443038357337	604.386142315356	1103.388374299739	583.171401018157	657.691671860344	1060.818303065281	475.303768039179	624.427099291389	964.213977488504	422.871818468180	690.932460591710	1030.995837867843	338.658924905322	634.590892213496	900.135149728224	126.437274925082	596.031693214337	954.561740620189	85.407500511360	684.363360517468	1068.619688606734	137.106800016157	695.185265263103	1162.895480856263	81.159667198152	718.229797909494	
